<svg width="400" height="400" viewBox="0 0 400 400" fill="none" xmlns="http://www.w3.org/2000/svg">
<g clip-path="url(#clip0)">
<path d="M300.977 107.11C298.588 107.11 296.539 106.199 294.732 105.395C294.349 105.229 293.971 105.063 293.594 104.897C291.011 103.825 288.936 102.486 287.252 100.802C285.261 98.8115 283.844 96.7659 282.928 94.5543C282.042 92.4191 281.138 89.8625 281.138 87.0769C281.138 84.1254 281.586 81.5455 282.465 79.4119C283.323 77.3414 284.897 75.9279 286.281 74.6736C286.704 74.292 287.111 73.9337 287.461 73.5753C289.148 71.888 291.004 70.1543 293.52 69.1107L293.783 69.0012C295.879 68.1302 298.253 67.1431 300.962 67.1431C303.273 67.1431 305.203 68.0473 306.905 68.8469C307.38 69.0692 307.829 69.28 308.262 69.4591C310.27 70.2887 312.768 71.3273 314.733 73.2999L314.809 73.3762C316.468 75.0353 318.359 76.9266 319.4 79.4368C320.407 81.864 320.49 84.5418 320.49 87.0785C320.49 89.8326 319.645 92.2465 318.734 94.4448C318.568 94.8297 318.422 95.2229 318.268 95.6178C317.548 97.4743 316.732 99.5764 315.091 101.217C313.314 102.994 311.006 103.94 308.971 104.774L308.383 105.015C308.121 105.123 307.859 105.235 307.592 105.347C305.687 106.181 303.491 107.11 300.977 107.11ZM300.977 72.1236C299.262 72.1236 297.455 72.8735 295.708 73.6002L295.441 73.7113C293.767 74.4048 292.383 75.7022 290.995 77.0975C290.545 77.5471 290.077 77.9685 289.626 78.375C288.532 79.3605 287.499 80.2912 287.071 81.3215C286.447 82.828 286.117 84.8189 286.117 87.0802C286.117 88.9865 286.795 90.8844 287.527 92.6497C288.191 94.2457 289.251 95.7605 290.772 97.2835C291.987 98.4963 293.533 99.4834 295.502 100.3C295.917 100.466 296.332 100.656 296.756 100.846C298.25 101.509 299.645 102.131 300.977 102.131C302.47 102.131 304.023 101.468 305.664 100.771C305.946 100.651 306.225 100.532 306.494 100.418L307.099 100.169C308.858 99.4486 310.519 98.7684 311.589 97.6983C312.486 96.8007 313.049 95.3523 313.644 93.8177C313.81 93.388 313.976 92.9583 314.152 92.5385C314.981 90.5477 315.527 88.8571 315.527 87.0785C315.527 84.9599 315.473 82.9308 314.816 81.3431C314.159 79.7554 312.705 78.2987 311.303 76.8968L311.227 76.8205C310.044 75.6392 308.465 74.9291 306.361 74.0581C305.823 73.8358 305.302 73.5902 304.798 73.353C303.454 72.7225 302.178 72.1253 300.977 72.1253V72.1236Z" fill="#FCDFE7"/>
<path d="M28.8445 88.961C26.4438 88.961 24.1062 88.4632 21.4898 87.3716C19.1488 86.4225 17.0217 85.014 15.2339 83.2294C13.4461 81.4448 12.034 79.3201 11.0808 76.9808C10.1517 74.7377 9.69875 72.3354 9.69875 69.6228C9.67814 67.1053 10.1633 64.6094 11.1256 62.283C12.1509 59.811 13.1496 57.6127 14.9929 55.7712C16.9373 53.8267 19.0626 52.3684 21.3106 51.436C23.6333 50.4704 26.1651 49.5762 28.8445 49.5762C31.1672 49.5762 33.6558 50.1386 36.4381 51.2933C38.847 52.2887 41.0386 53.7444 42.8903 55.5787C44.848 57.5364 45.9181 60.1179 46.7775 62.1918C47.7265 64.4796 48.1877 66.9085 48.1877 69.6178C48.1877 72.4847 47.3366 74.9268 46.5037 76.931C45.5422 79.2469 44.1262 81.3467 42.3395 83.1061C40.7136 84.732 38.872 86.5736 36.3153 87.6337C34.1536 88.5263 31.7131 88.961 28.8445 88.961ZM28.8445 54.5484C26.9449 54.5484 24.944 55.3133 23.2169 56.0283C21.5744 56.7085 19.9917 57.8052 18.5118 59.2851C17.3139 60.4829 16.5707 62.1403 15.7229 64.1843C15.0089 65.9057 14.6527 67.7544 14.676 69.6178C14.676 71.6883 14.9945 73.4204 15.6714 75.0695C16.374 76.8064 17.4197 78.3837 18.7458 79.7073C20.0719 81.0308 21.6513 82.0734 23.3895 82.7726C25.3804 83.6021 27.1124 83.9837 28.8379 83.9837C31.0395 83.9837 32.8562 83.6735 34.3941 83.0364C36.0383 82.3545 37.3805 81.0107 38.8056 79.5872C40.1341 78.2909 41.1851 76.7381 41.8948 75.0231C42.5717 73.3905 43.1989 71.6054 43.1989 69.6161C43.2277 67.7259 42.8774 65.849 42.1686 64.0964C41.4419 62.3428 40.6173 60.3552 39.3581 59.0959C37.9685 57.725 36.3284 56.634 34.5269 55.8823C32.3618 54.9848 30.5019 54.5468 28.8445 54.5468V54.5484Z" fill="#FCDFE7"/>
<path d="M214.978 89.9779C211.677 89.9779 208.342 88.4549 205.57 85.6892C204.341 84.452 203.37 82.9834 202.713 81.3684C202.056 79.7534 201.725 78.0241 201.741 76.2806C201.741 72.9359 203.146 69.7621 205.802 67.1059C208.674 64.234 211.761 62.7773 214.977 62.7773C218.156 62.7773 221.137 64.2124 224.09 67.1673C226.884 69.9611 228.299 73.0271 228.299 76.2822C228.299 79.6004 226.901 82.6913 224.141 85.4486C221.097 88.4964 218.097 89.9779 214.978 89.9779ZM214.978 67.7463C213.104 67.7463 211.254 68.6853 209.323 70.6165C207.594 72.3452 206.72 74.2465 206.72 76.2723C206.706 77.362 206.908 78.4436 207.315 79.4545C207.722 80.4655 208.326 81.3857 209.09 82.162C210.89 83.9605 213.036 84.9924 214.98 84.9924C216.737 84.9924 218.53 84.0152 220.621 81.9198C222.411 80.1296 223.32 78.2283 223.32 76.2789C223.32 74.366 222.419 72.536 220.568 70.6845C218.572 68.6853 216.795 67.7546 214.978 67.7546V67.7463Z" fill="#FCDFE7"/>
<path d="M263.732 151.392C260.12 151.365 256.659 149.938 254.079 147.41C251.607 144.938 250.13 141.329 250.13 137.757C250.13 134.273 251.61 130.789 254.188 128.214C256.38 126.023 259.59 124.911 263.732 124.911C267.7 124.911 270.866 126.072 273.145 128.345C274.369 129.581 275.337 131.046 275.994 132.656C276.652 134.266 276.985 135.99 276.976 137.73C276.967 139.469 276.616 141.189 275.941 142.792C275.267 144.395 274.284 145.85 273.047 147.073C271.071 149.039 267.861 151.392 263.732 151.392ZM263.732 129.88C260.921 129.88 258.95 130.484 257.707 131.727C256.08 133.354 255.108 135.606 255.108 137.751C255.108 139.997 256.062 142.348 257.596 143.889C259.243 145.487 261.44 146.393 263.735 146.421C266.154 146.421 268.214 144.862 269.53 143.553C270.657 142.426 272 140.505 272 137.757C272.014 136.667 271.811 135.585 271.404 134.573C270.997 133.562 270.393 132.641 269.628 131.864C268.314 130.545 266.331 129.88 263.732 129.88Z" fill="#FCDFE7"/>
<path d="M394.698 311.163C391.38 311.163 387.919 309.613 385.22 306.912C382.52 304.211 380.962 300.752 380.962 297.434C380.962 294.31 382.456 291.304 385.51 288.244C388.37 285.384 391.463 283.931 394.7 283.931C397.963 283.931 401.16 285.402 403.944 288.186C406.892 291.134 408.385 294.245 408.385 297.432C408.385 301.024 406.892 304.656 404.403 307.145C401.915 309.633 398.212 311.163 394.698 311.163ZM394.698 288.911C392.83 288.911 390.922 289.872 389.027 291.765C386.92 293.872 385.938 295.674 385.938 297.436C385.938 299.443 386.958 301.615 388.738 303.395C390.519 305.175 392.685 306.187 394.698 306.187C397.011 306.144 399.222 305.23 400.891 303.629C402.419 302.099 403.408 299.669 403.408 297.436C403.408 295.611 402.404 293.689 400.422 291.708C399.147 290.433 397.118 288.911 394.698 288.911Z" fill="#FCDFE7"/>
<path d="M348.243 161.347C346.418 161.347 343.734 161.101 341.607 158.978C339.42 156.791 338.358 154.623 338.358 152.341C338.358 149.853 339.478 147.183 341.278 145.373C343.304 143.348 346.183 142.923 348.246 142.923C350.851 142.923 353.239 143.877 354.972 145.609C356.764 147.391 357.781 149.808 357.803 152.335C357.803 154.701 356.776 156.98 354.833 158.921C353.204 160.557 351.049 161.347 348.243 161.347ZM348.243 147.908C346.687 147.908 345.433 148.27 344.8 148.904C343.926 149.778 343.337 151.162 343.337 152.345C343.337 153.222 343.939 154.271 345.127 155.459C345.579 155.91 346.302 156.371 348.241 156.371C350.098 156.371 350.835 155.887 351.309 155.412C352.305 154.417 352.82 153.377 352.82 152.345C352.802 151.137 352.31 149.986 351.448 149.139C350.657 148.345 349.519 147.908 348.243 147.908Z" fill="#FCDFE7"/>
<path d="M251.392 268.39C248.314 268.39 246.272 266.705 245.003 265.436C243.733 264.166 241.664 262.097 241.664 259.045C241.664 256.759 242.721 254.544 244.807 252.46C246.892 250.376 249.12 249.308 251.392 249.308C253.804 249.308 256.271 250.391 258.162 252.281C259.324 253.442 261.27 255.864 261.27 259.051C261.27 261.435 260.135 263.994 258.235 265.893C256.596 267.526 254.23 268.39 251.392 268.39ZM251.392 254.278C250.473 254.278 249.47 254.834 248.326 255.979C247.181 257.124 246.642 258.114 246.642 259.045C246.642 259.975 247.493 260.888 248.521 261.917C249.585 262.98 250.418 263.41 251.392 263.41C252.86 263.41 254.046 263.038 254.71 262.365C255.682 261.392 256.286 260.118 256.286 259.046C256.286 258.051 255.67 256.828 254.637 255.796C253.693 254.846 252.477 254.28 251.392 254.28V254.278Z" fill="#FCDFE7"/>
<path d="M88.8977 360C86.2658 359.963 83.7482 358.919 81.8616 357.084C79.8524 355.075 79.431 352.15 79.431 350.048C79.431 347.27 80.3468 344.825 82.0109 343.161C83.8574 341.313 86.4323 340.211 88.8977 340.211C90.1916 340.205 91.4739 340.456 92.6705 340.948C93.8672 341.44 94.9546 342.164 95.8701 343.079C96.7856 343.993 97.511 345.08 98.0046 346.276C98.4982 347.472 98.7502 348.754 98.746 350.048C98.746 352.307 97.6842 354.467 95.5008 356.651C94.0624 358.089 91.8127 360 88.8977 360ZM88.8977 345.19C87.7596 345.19 86.4373 345.776 85.5315 346.683C84.8297 347.386 84.4099 348.644 84.4099 350.051C84.4099 351.644 84.7733 352.959 85.3821 353.568C86.3373 354.467 87.5883 354.986 88.8994 355.026C89.9678 355.026 91.1706 353.946 91.9836 353.135C93.1864 351.932 93.7704 350.924 93.7704 350.053C93.7746 349.412 93.6514 348.778 93.408 348.185C93.1645 347.593 92.8057 347.055 92.3524 346.603C91.8991 346.151 91.3603 345.793 90.7675 345.551C90.1747 345.309 89.5397 345.187 88.8994 345.193L88.8977 345.19Z" fill="#FCDFE7"/>
<path d="M179.643 187.71C182.514 187.71 184.841 185.383 184.841 182.512C184.841 179.641 182.514 177.314 179.643 177.314C176.773 177.314 174.445 179.641 174.445 182.512C174.445 185.383 176.773 187.71 179.643 187.71Z" fill="#FCDFE7"/>
<path d="M188.218 353.516C191.089 353.516 193.416 351.189 193.416 348.318C193.416 345.447 191.089 343.12 188.218 343.12C185.348 343.12 183.021 345.447 183.021 348.318C183.021 351.189 185.348 353.516 188.218 353.516Z" fill="#FCDFE7"/>
<path d="M381.416 220.622C384.286 220.622 386.614 218.295 386.614 215.424C386.614 212.554 384.286 210.227 381.416 210.227C378.545 210.227 376.218 212.554 376.218 215.424C376.218 218.295 378.545 220.622 381.416 220.622Z" fill="#FCDFE7"/>
<path d="M258.399 52.5462C261.27 52.5462 263.597 50.219 263.597 47.3483C263.597 44.4776 261.27 42.1504 258.399 42.1504C255.529 42.1504 253.202 44.4776 253.202 47.3483C253.202 50.219 255.529 52.5462 258.399 52.5462Z" fill="#FCDFE7"/>
<path d="M13.3709 126.422C16.2416 126.422 18.5688 124.094 18.5688 121.224C18.5688 118.353 16.2416 116.026 13.3709 116.026C10.5002 116.026 8.17297 118.353 8.17297 121.224C8.17297 124.094 10.5002 126.422 13.3709 126.422Z" fill="#FCDFE7"/>
</g>
<defs>
<clipPath id="clip0">
<rect width="400" height="400" fill="white"/>
</clipPath>
</defs>
</svg>
